<svg xmlns="http://www.w3.org/2000/svg" viewBox="0 0 48 100" width="480px" height="480px">

    <defs>
        <style>
            text {
            text-anchor: middle;
            alignment-baseline: middle;
            fill:#eee;
            font-family: AIGDT
            box-shadow: 0px 24px 32px rgba(37, 37, 37, 0.1);

            }
        </style>
    </defs>

    <path fill="#424242" d="M24,4c-5.5,0-10,4.5-10,10v4h4v-4c0-3.3,2.7-6,6-6s6,2.7,6,6v4h4v-4C34,8.5,29.5,4,24,4z"/>
    <path fill="#FB8C00"
          d="M36,44H12c-2.2,0-4-1.8-4-4V22c0-2.2,1.8-4,4-4h24c2.2,0,4,1.8,4,4v18C40,42.2,38.2,44,36,44z"/>
    <path fill="#C76E00" d="M24 28A3 3 0 1 0 24 34A3 3 0 1 0 24 28Z"/>
    <text x="25" y="70">Находится в</text>
    <text x="25" y="85">в разработке!</text>

</svg>