<?xml version="1.0" encoding="UTF-8"?>
<svg id="_Слой_2" data-name="Слой 2" xmlns="http://www.w3.org/2000/svg" viewBox="0 0 1920 724.71">
  <defs>
    <style>
      .cls-1 {
        fill: #444444;
      }

      .cls-2 {
        fill: #665544;
      }

      .cls-3 {
        fill: #778899;
      }
    </style>
  </defs>
  <path class="cls-1" d="M1895.17,88.24s-30.02,2.14-73.61,6.24l-5.33,17.79s-135.18,96.89-139.46,98.08c-120.73,33.64-156.32-31.87-236.64,7.31-57.06,27.84-16.64,31.46-83.37,58.23-57.7,23.15-140.6,29.03-189.66,55.03-56.32,29.85-68.49,62.59-110.7,75.87-58.09,18.27-160.16-25.05-233.11-15.77-83.79,10.66-3.64,106.03-101.39,124.46-58.39,11.01-77.5-29-168.89-21.7-58.9,4.7-71.86,22.98-130.36,32.59-97,15.93-126.95-39.53-192.1-19.83-58.32,17.63-107.66,69.02-107.66,69.02l-29.66-18.21C45.83,587.12.39,616.34.39,616.34c0,0,126.83,117.89,233.34,107.75,61.14-5.82,77.26-31.6,175.04-44.89,79.09-10.75,82.77,4.17,131.62-7.8,100.55-24.65,94.93-81.07,181.84-107.39,90.94-27.53,128.27,25.64,232.46,7.74,118.23-20.31,125.2-110.75,249-143.71,86.03-22.9,114.86,16.68,251.62,22.39,144.26,6.03,464.68-100.74,464.68-100.74l-24.83-261.46Z"/>
  <path class="cls-2" d="M484.13,464.01c120.28-44.45,121.06-122.06,215.9-130.74,88.48-8.09,123.62,56.19,189.83,36.2,74.98-22.64,65.75-115.92,134.96-131.57,53.98-12.21,76.85,40.62,151.61,52.53,104.62,16.67,164.29-70.14,342.33-145.35,58.05-24.52,210.72-41.95,302.81-50.61l15.91-53.1S1655.98-2.86,1600.52.15c-34.15,1.85-168.9,10.91-362.03,79.24-137.22,48.54-147.45,71.65-222.17,75.32-115.31,5.66-146.87-46.61-232.33-28.36-98.8,21.1-88.26,97.73-193.3,143.63-126.82,55.42-202.34-29.99-360.34,13.95C99.43,320.33,0,500.1,0,500.1l93.24,57.24c47.52-29.84,97.02-60.24,104.74-62.32,139.43-37.63,179.46,8.41,286.15-31.02Z"/>
  <path class="cls-3" d="M230.56,506.53c65.15-19.7,95.1,35.76,192.1,19.83,58.5-9.61,71.47-27.89,130.36-32.59,91.38-7.29,110.5,32.71,168.89,21.7,97.75-18.43,17.6-113.8,101.39-124.46,72.95-9.28,175.02,34.04,233.11,15.77,42.21-13.27,54.38-46.01,110.7-75.87,49.06-26,131.96-31.88,189.66-55.03,66.73-26.77,26.3-30.4,83.37-58.23,80.32-39.18,115.91,26.33,236.64-7.31,4.28-1.19,139.46-98.08,139.46-98.08l5.33-17.79c-92.1,8.66-244.76,26.09-302.81,50.61-178.03,75.21-237.71,162.01-342.33,145.35-74.76-11.91-97.63-64.74-151.61-52.53-69.21,15.65-59.98,108.93-134.96,131.57-66.2,19.99-101.34-44.29-189.83-36.2-94.84,8.67-95.62,86.28-215.9,130.74-106.69,39.43-146.72-6.61-286.15,31.02-7.72,2.08-57.22,32.48-104.74,62.32l29.66,18.21s49.34-51.39,107.66-69.02Z"/>
</svg>