<?xml version="1.0" encoding="UTF-8"?>
<svg xmlns="http://www.w3.org/2000/svg" version="1.1" xmlns:xlink="http://www.w3.org/1999/xlink" viewBox="0 0 800 800">
  <!-- Generator: Adobe Illustrator 29.3.0, SVG Export Plug-In . SVG Version: 2.1.0 Build 146)  -->
  <defs>
    <style>
      .st0 {
        fill: #f2d996;
      }

      .st1 {
        fill: #727272;
      }

      .st2 {
        fill: url(#_Безымянный_градиент_97);
      }

      .st3 {
        fill: url(#_Безымянный_градиент_102);
      }

      .st4 {
        fill: #e2e2e2;
      }

      .st5 {
        fill: url(#_Безымянный_градиент_87);
      }

      .st6 {
        fill: url(#_Безымянный_градиент_96);
      }

      .st7 {
        fill: #d0b9bf;
      }

      .st8 {
        fill: #c7c7c7;
      }

      .st9 {
        fill: #a5a5a5;
      }

      .st10 {
        fill: url(#_Безымянный_градиент_8);
      }

      .st11 {
        fill: url(#_Безымянный_градиент_27);
      }

      .st12 {
        fill: #535d69;
      }

      .st13 {
        fill: url(#_Безымянный_градиент_6);
      }

      .st14 {
        fill: #b5b5b5;
      }
    </style>
    <linearGradient id="_Безымянный_градиент_87" data-name="Безымянный градиент 87" x1="533.5" y1="540.47" x2="533.5" y2="238.25" gradientUnits="userSpaceOnUse">
      <stop offset=".17" stop-color="#494e5a"/>
      <stop offset=".75" stop-color="#000"/>
    </linearGradient>
    <linearGradient id="_Безымянный_градиент_102" data-name="Безымянный градиент 102" x1="516.12" y1="594.33" x2="516.12" y2="403.4" gradientUnits="userSpaceOnUse">
      <stop offset=".57" stop-color="#e4e1ea"/>
      <stop offset=".61" stop-color="#dbd9e1"/>
      <stop offset=".67" stop-color="#c6c3cb"/>
      <stop offset=".75" stop-color="#a29fa6"/>
      <stop offset=".83" stop-color="#706e73"/>
      <stop offset=".93" stop-color="#313032"/>
      <stop offset="1" stop-color="#000"/>
    </linearGradient>
    <linearGradient id="_Безымянный_градиент_8" data-name="Безымянный градиент 8" x1="520.35" y1="454.62" x2="520.35" y2="187.7" gradientUnits="userSpaceOnUse">
      <stop offset="0" stop-color="#e4e1ea"/>
      <stop offset="0" stop-color="#e2dfe8"/>
      <stop offset=".1" stop-color="#a7a5ab"/>
      <stop offset=".19" stop-color="#747277"/>
      <stop offset=".29" stop-color="#4a494c"/>
      <stop offset=".38" stop-color="#2a292b"/>
      <stop offset=".46" stop-color="#121213"/>
      <stop offset=".54" stop-color="#040404"/>
      <stop offset=".6" stop-color="#000"/>
    </linearGradient>
    <linearGradient id="_Безымянный_градиент_27" data-name="Безымянный градиент 27" x1="590.65" y1="594.33" x2="590.65" y2="305.46" gradientUnits="userSpaceOnUse">
      <stop offset=".42" stop-color="#535d69"/>
      <stop offset=".77" stop-color="#000"/>
    </linearGradient>
    <linearGradient id="_Безымянный_градиент_6" data-name="Безымянный градиент 6" x1="431.24" y1="574.67" x2="467" y2="441.21" gradientUnits="userSpaceOnUse">
      <stop offset=".5" stop-color="#535d69"/>
      <stop offset="1" stop-color="#000"/>
    </linearGradient>
    <linearGradient id="_Безымянный_градиент_97" data-name="Безымянный градиент 97" x1="123.96" y1="562.66" x2="206.25" y2="562.66" gradientUnits="userSpaceOnUse">
      <stop offset=".33" stop-color="#535d69"/>
      <stop offset=".63" stop-color="#515b67"/>
      <stop offset=".73" stop-color="#4c5560"/>
      <stop offset=".81" stop-color="#424a54"/>
      <stop offset=".87" stop-color="#353b43"/>
      <stop offset=".93" stop-color="#24282d"/>
      <stop offset=".97" stop-color="#0f1013"/>
      <stop offset="1" stop-color="#000"/>
    </linearGradient>
    <linearGradient id="_Безымянный_градиент_96" data-name="Безымянный градиент 96" x1="269.75" y1="505.56" x2="242.7" y2="552.43" gradientUnits="userSpaceOnUse">
      <stop offset=".62" stop-color="#535d69"/>
      <stop offset=".79" stop-color="#515b67"/>
      <stop offset=".85" stop-color="#4c5560"/>
      <stop offset=".89" stop-color="#424a54"/>
      <stop offset=".93" stop-color="#353b43"/>
      <stop offset=".96" stop-color="#24282d"/>
      <stop offset=".99" stop-color="#0f1013"/>
      <stop offset="1" stop-color="#000"/>
    </linearGradient>
  </defs>
  <g id="_Слой_5" data-name="Слой_5">
    <rect class="st1" x="8.71" y="295.39" width="781.43" height="205.83" rx="29.54" ry="29.54"/>
  </g>
  <g id="_Слой_3" data-name="Слой_3">
    <path class="st5" d="M615.27,501.03c-2.19,2.23-9.04,9.03-19.57,16.04-35.98,23.97-86.89,31.7-130.93,12.87-11.33-4.84-33.35-14.26-49.07-37.13-24.8-36.08-15.6-79.02-8.22-113.48,7.22-33.69,15.42-72.01,49.7-102.52,26.62-23.7,77.72-50.5,118.57-32.87,27.38,11.82,15.34,28.58,69.26,87.26,8.1,8.82,20.69,21.85,22.3,41.09.89,10.57-2.06,16.86-9.39,35.61-23.81,60.85-23.91,74.04-42.65,93.13Z"/>
    <path class="st3" d="M462.37,506.54c40.47,42.11,62.42,87.79,62.42,87.79,0,0,41.33-64.08,72.49-99.4-4.28-2.11-10.2-4.53-22.24-9.22-15.19-5.91-31.68-10.72-32.87-14.48-2.35-7.43,1.76-23.09,6.33-40.83,3.1-12.05-22.7-27-22.7-27,0,0-51.62,3.14-53.22,21.91-1.63,19.11-2.22,40.24-7.43,45.39-1.5,1.49-15.02,6.53-30.18,11.34,9.5,7.47,18.97,15.72,27.4,24.49Z"/>
    <path d="M611.49,438.75c-1.26,1.31-15.47-8.97-14.61-10.57.48-.89,3.95.69,7.92,4.04,2.77,2.34,7.32,5.86,6.68,6.52Z"/>
    <path d="M602.46,420.02c.11-.8,3.77-.51,6.33.21,4.84,1.36,9.07,3.35,8.67,4.22-.67,1.49-15.22-2.79-15-4.43Z"/>
    <path class="st10" d="M645.57,312.91c0-70.77-58.72-127.84-130.1-125.12-66.05,2.51-119.15,56.77-120.32,122.86-.44,24.85,6.37,48.09,18.44,67.73l-16.11,32.23s14.44-6.56,38.35,5.48c18.05,9.09,27.78,22.04,46.17,28.57,27.5,9.75,64.17,17.22,97.83-1.96,27.77-15.82,37.41-38.4,39.52-45,.52-1.63.94-3.5,1.27-5.49.58-3.47,1.88-6.79,3.84-9.71,13.33-19.9,21.1-43.83,21.1-69.57Z"/>
    <path d="M549.6,424.76s-1.96-5.15-4.04-7.89c-2.63-3.45-6.59-5.61-6.59-5.61,0,0,7.17-1.5,11.74-1.22,5.73.36,11.74,2.94,11.74,2.94,0,0-4.17,2.71-6.65,4.79-2.86,2.41-6.2,6.98-6.2,6.98Z"/>
    <path d="M488.49,417.75c6.11-.13,12.94.87,12.91,1.45-.05,1.12-25.09,1.48-25.17.37-.04-.57,6.55-1.71,12.26-1.83Z"/>
    <path d="M478.65,437.97c.91,1.28,21.01-10.31,20.35-11.74-.35-.75-6.57,1.05-11.48,3.91-4.73,2.76-9.34,7.16-8.87,7.83Z"/>
    <path class="st12" d="M676.05,610.4c-9.38-41.32-22.14-60.57-28.74-69.82-8.46-11.87-15.19-20.63-23.39-27.92-10.07,6.71-20,12.69-25.61,17.07-47.35,36.98-73.53,64.6-73.53,64.6,0,0-22.14-15.68-70.08-43.27-34.97-20.12-65.44-30.35-83.63-39.62-18.9,17.19-32.88,40.51-45.63,61.79-11.87,19.82-34.04,149.48-34.04,149.48l383.09,2.35s3.87-104.49,1.57-114.65Z"/>
    <path class="st11" d="M654.66,452.25c-.77-22.15.03-29.71.03-29.71,0,0-15.46,26.87-53.4,67.92-1.32,1.43-2.66,2.92-4.02,4.46-31.16,35.33-72.49,99.4-72.49,99.4,0,0,26.18-27.62,73.53-64.6,5.61-4.38,15.54-10.36,25.61-17.07,14.85-9.89,30.01-21.36,32.1-31.65,1.47-7.2-.86-14.09-1.37-28.76Z"/>
    <path class="st13" d="M462.37,506.54c-8.43-8.77-17.9-17.02-27.4-24.49-29.32-23.05-58.91-38.6-58.91-38.6,0,0-32.88,48.55-15.26,61.83,2.75,2.07,6.21,4.1,10.28,6.17,18.19,9.26,48.67,19.49,83.63,39.62,47.93,27.59,70.08,43.27,70.08,43.27,0,0-21.94-45.68-62.42-87.79Z"/>
    <path class="st12" d="M491.12,540.58s-26.8-29.93-50.93-88.46c-10.2-24.74-17.93-46.14-18.71-54.1-1.61-16.36,63.1-87.33,70.17-91.3,21.23-11.93,77.74-35.22,92.35-27.78,6.5,3.31,72.52,87.44,72.52,93.91,0,8.74-17.77,62.34-38.61,93.91-14.93,22.62-28.17,38.61-28.17,38.61,0,0,28.02-22.57,48.78-45.26,19.89-21.73,29.37-34.92,34.17-43.96,5.48-10.3,4.46-87.52-4.96-118.57-18.97-62.56-66-177.39-86.87-173.61-6.73,1.22-19.69,30.39-23.74,33.26-6.07,4.3-63.91,10.17-106.17,27.13-23.83,9.56-102.26,55.57-106.17,74.35-2.87,13.79,6.09,16.89,14.87,50.87,4.12,15.95,2.88,31.55,1.57,72-.78,24-10.39,64.35-6.26,74.22,5.74,13.7,13.78,18.73,62.61,48.91,40.93,25.31,73.56,35.86,73.56,35.86Z"/>
  </g>
  <g id="_Слой_4" data-name="Слой_4">
    <path class="st2" d="M198.82,538.88c-6.33,1.37-19.58,3.13-29.15,5.09-6.16,1.26-17.69,3.61-25.83,12.91-2.32,2.65-7.96,9.1-6.65,16.04,1.65,8.8,13.44,11.45,12.13,14.87-1.83,4.76-11.29,5.19-18.2.59-8.2-5.46-7.19-17.41-7.04-19.17.96-11.42,9.51-18.63,12.72-21.33,4.31-3.63,12.62-7.98,30.33-11.54,11-2.21,20.21-3.26,30.59-2.21,1.47.15,8.54.84,8.54.84,0,0-3.12,2.98-7.43,3.91Z"/>
    <path class="st12" d="M267.7,491.34c3.22,2.5,2.63,7.15,2.02,11.09-1.06,6.8-4.03,9.87-5.22,10.04-3.59.52-18,1.2-28.11-1.83-3.59-1.08-24.18-7.1-42.52-6.52-15,.47-25.65,9.52-41.74,10.43-13.63.78-19.76,2.74-33.59,6-9.59,2.26-16.64,3.99-23.28,2.09-2.28-.65-8.19-11.61-7.83-13.83.77-4.74,4.51-2.32,25.63-6.39,4.43-.85,18.46-7.7,18.46-7.7,0,0-17.34-3.42-18.37-6.82-.88-2.87,4.37-6.38,9.76-11.45,5.66-5.31,4.25-5.77,7.85-10.37,4.6-5.87,6.21-6.06,10.96-8.41,3.39-1.68,9.2-4.3,12.72-4.5,7.92-.44,10.85,2.9,13.01,5.77,3.43,4.56,5,19.45,5.55,20.61.98,2.05,8.81,1.01,20.48,3.47,16.97,3.57,17.39,2.14,27.19,4.2,8.42,1.77,17.6,3.92,27.79,3.59,10.36-.33,17.72-.66,19.24.52Z"/>
    <path class="st6" d="M281.28,513.12c-6.44,0-7.51,4.09-9.39,7.3-2.92,5-2,8.54-4.7,9.91-1.92.98-9.96-.47-12.65-1.57-19.3-7.84-14.61-6.78-20.22-8.74-1.28-.45-4.51-2.65-9-2.74-1.37-.03-2.43-.05-3.52.39-4.4,1.78-6.65,10.1-4.83,16.04,1.71,5.55,7.03,8.26,17.61,13.43,12.31,6.03,15.78,6.65,23.35,9.26.73.25,7.57,3,14.74,4.3,2.52.46,3.81.68,4.96.39,5.94-1.5,8.02-11.52,9.52-18.78,2.88-13.88,1.23-20.97.73-23.22-.73-3.26-3.34-6-6.6-6Z"/>
    <path class="st12" d="M227.8,569.21c-4.72,2.13-9.93-.23-13.17-1.7-1.82-.82-6.35-3.1-17.48-16.43-6.42-7.7-6.4-8.71-9.91-11.61-3.6-2.96-6.63-4.37-15.26-7.96-19.68-8.17-24.04-13.44-24.46-16.62-.47-3.59,4.52-2.91,8.94-5.68,5.92-3.72,23.34-14.66,46.04-9.78,5.11,1.1,20.84,12.72,23.45,14.93,1.17,1,12.5,7.41,12.5,7.41,0,0-10.42,7.03-9.51,8.9.61,1.25.96-1.54,4.61.46,6.66,3.66,2.8,21.14,2.35,23.09-1.46,6.37-2.91,12.67-8.09,15Z"/>
    <path class="st7" d="M198.66,509.12c-19.36,5.68-26.16,15.01-28.66,21.56,0,0-17.85-7.8-25.43-9.61-8.07-1.93-19.61-.88-19.61-.88-.82-2.6.39-8.24-2.45-13.35-3.5-6.32-7.77-4.86-7.77-4.86,5.66-2.53,13.26-6.63,18.77-9.13,3.8-1.72,12.41-6.17,22.6-9.52,5.37-1.77,13.16-4.72,26.51-3.52,10.22.92,36.17,7.02,36.17,7.02-.17,2.6-.04,5.53.08,8.95.33,9.14-.77,10.5-.77,10.5-2.61,1.66-9.69-4.21-8.82-3.99,2.29.58,10.79,7.63,10.79,7.63-5.04-.92-12.27-3.47-21.4-.79Z"/>
  </g>
  <g id="_Слой_7" data-name="Слой_7">
    <path class="st4" d="M199.96,476.48s-25.88-13.44-24.26-33.65c1.38-17.26,19.87-28.42,18.78-42.65-.97-12.66-24.24-14.27-27.78-21.78-6.65-14.09-12.39-45.91-10.04-49.3,2.56-3.7,15-5.87,24.26-6.26l17.22-6.52c2.22-7.43,7.19-17.69,11.74-17.74,3-.03,12.78,16.44,15.53,26.39,3.02,10.91,4.93,24.55,4.29,34.4-.26,4.04-8.51,11.77-7.96,21.65,1.07,19.05,3.85,18.74,1.57,30.65-2.66,13.86-17.73,22.23-25.17,40.3-6.21,15.09,1.83,24.52,1.83,24.52Z"/>
    <polygon points="186.95 347.61 180.17 344.63 183.15 337.85 181.33 337.05 178.35 343.83 171.57 340.85 170.77 342.67 177.55 345.65 174.57 352.43 176.4 353.23 179.37 346.45 186.15 349.43 186.95 347.61"/>
    <polygon points="216.66 334.69 209.88 331.71 212.86 324.93 211.03 324.13 208.06 330.91 201.28 327.93 200.48 329.76 207.25 332.73 204.28 339.51 206.1 340.31 209.08 333.54 215.86 336.51 216.66 334.69"/>
    <path d="M202.7,346.51l-11.09,4.3c-2.34,6.17,6.33,14.56,10.3,12.91,3.89-1.62,6.96-14.32.78-17.22ZM201.13,361.64c-3,1.25-9.54-5.09-7.78-9.75l8.37-3.25c4.66,2.18,2.35,11.78-.59,13Z"/>
  </g>
  <g id="_Слой_8" data-name="Слой_8">
    <polygon class="st14" points="419.65 726.65 563.18 730.9 532.75 720.33 396.74 723.35 419.65 726.65"/>
    <polygon class="st8" points="419.65 726.65 698.01 726.65 742.03 534.23 453.77 534.23 419.65 726.65"/>
    <polygon class="st9" points="419.65 726.65 698.01 726.65 696.49 736.12 420.22 737.8 397.26 733.5 396.74 723.35 419.65 726.65"/>
    <path class="st0" d="M624.51,657.46c-.23-.31-.51-.56-.83-.76,5.85-9.41,3.04-26.11-7.65-40.62-.25-.34-.51-.65-.76-.98-1.72,1.22-3.88,1.82-6.14,1.53-2.73-.36-4.99-1.96-6.3-4.14-1.81.46-3.74.6-5.71.34-8.18-1.08-13.95-8.49-13.06-16.65-1.58,0-3.11.18-4.55.56-.1-.37-.25-.71-.48-1.02-1.44-1.95-4.95-1.81-7.85.33-2.89,2.13-4.08,5.44-2.64,7.4.33.45.78.79,1.31,1.02-5.05,9.57-2.07,25.59,8.24,39.59,10.31,13.99,24.73,21.59,35.36,19.61.06.57.25,1.1.58,1.55,1.44,1.95,4.95,1.81,7.85-.33,2.89-2.13,4.08-5.44,2.64-7.4Z"/>
  </g>
</svg>