<?xml version="1.0" encoding="UTF-8"?>
<svg xmlns="http://www.w3.org/2000/svg" version="1.1" xmlns:xlink="http://www.w3.org/1999/xlink" viewBox="0 0 800 800">
  <!-- Generator: Adobe Illustrator 29.3.0, SVG Export Plug-In . SVG Version: 2.1.0 Build 146)  -->
  <defs>
    <style>
      .st0 {
        fill: #cca2ae;
      }

      .st1 {
        fill: #727272;
      }

      .st2 {
        fill: #e9a3a3;
      }

      .st3 {
        fill: #3e464f;
      }

      .st4 {
        fill: #ddcad0;
      }

      .st5 {
        fill: #7a5942;
      }

      .st6 {
        fill: #724928;
      }

      .st7 {
        fill: #d0b9bf;
      }

      .st8 {
        fill: #e4e1ea;
      }

      .st9 {
        fill: #86a3b1;
      }

      .st10 {
        fill: url(#_Безымянный_градиент_76);
      }

      .st11 {
        fill: #535d69;
      }

      .st12 {
        fill: #507287;
      }
    </style>
    <linearGradient id="_Безымянный_градиент_76" data-name="Безымянный градиент 76" x1="236.9" y1="543.48" x2="226.32" y2="664.4" gradientUnits="userSpaceOnUse">
      <stop offset=".55" stop-color="#535d69"/>
      <stop offset="1" stop-color="#525176"/>
    </linearGradient>
  </defs>
  <g id="_Слой_2" data-name="Слой_2">
    <rect class="st1" x="8.71" y="295.39" width="781.43" height="205.83" rx="29.54" ry="29.54"/>
    <path class="st11" d="M264.36,603.13s14.4,7.44,37.76,11.54c11.55,2.03,20.67,3.63,29.93-.98,12.03-5.98,14.59-10.06,15.86-13.02,3.39-7.92,7.03-20.68,13.49-22.05,5.82-1.23,13.01-4.23,18.78-.2,5.78,4.04,4.57,14.48,4.89,17.57.66,6.31-3.36,10.19-4.89,19.37-2.35,14.09-9.44,26.77-9.98,29.43-1.26,6.25-1.63,11.56-5.67,18-1.65,2.62-4.53,7.1-9.59,9.39-6.89,3.12-14.04.46-18.78-.98-10.23-3.11-6.98.16-38.15-3.13-39.06-4.12-49.12-9.35-49.12-9.35l15.47-55.6Z"/>
    <path class="st9" d="M149.27,675.72s8.83-11.91,19.35-19.57c12.05-8.76,30.42-4.58,54,.78,19.79,4.5,33.39,4.96,33.39,4.96,0,0,9.27-11.8,13.57-26.61,4.47-15.42,4.17-34.51,4.17-34.51,0,0-11.75-3.52-29.22-7.49-25.72-5.84-33.61-8.28-55.57-13.3-17.06-3.91-28.26-10.35-50.61-3.65-19.07,5.71-17.84,10.16-24.47,16.34-7.91,7.37-26.92,27.22-26.92,27.22,0,0,27.84,2.1,37.3,15.39,9.31,13.08-2.54,28.79,7.4,38.61,5.26,5.19,17.59,1.83,17.59,1.83Z"/>
    <path class="st7" d="M243.13,590.09s-11.36,23.47-33.39,34.17c-18.78,9.13-97.3-32.35-97.3-32.35,0,0,9.08-22.05,14.87-62.61,4.85-33.98-1.38-44.81,8.93-62.15,10.66-17.92,33.47-27.76,54.59-27.2,20.94.56,42.78,11.4,52.83,29.74,4.65,8.48-.2,32.74-5.74,68.74-4.17,27.13,5.22,51.65,5.22,51.65Z"/>
    <path class="st11" d="M307.08,342.71c-2.19-6.76-7.09-12.22-13.96-16.25-3.08-1.8-5.36-4.67-6.64-8-2.68-6.95-6.48-13.28-11.16-18.88-5.19-13.62-11.66-32.94-16.6-55.47-4.79-21.82-14.45-36.49-19.43-42.39-3.94-4.67-7.96-12.91-13.6-4.56-6.41,9.48-11.63,16.02-18.22,39-3.35,11.7-6.17,26.31-8.14,37.99-.88.17-1.75.33-2.63.52-3.03.67-5.97,1.5-8.84,2.46-7.94-3.85-20.15-10.07-37.17-19.52-19.54-10.84-28.92-12.72-42.8-16.08-2.22-.54-14.04-2.08-15.27,2-3.3,10.96-.78,30.52,17.8,85.5,7.49,22.14,18.36,37.88,28.67,48.78.11,3.05,0,7.87-.76,15.39-.86,8.61-3.74,15.1-9.89,20.97,10.82-1.78,21.75-1.94,24.76,3.69,2.68,5-1.55,12.34-7.69,19.41,5.89-1.41,12.2-3.49,19.96-5.72,5.92-1.69,14.24-3.98,22.59-6.24-.27.65-.53,1.3-.82,1.96-4.57,10.75-12.33,20.33-12.33,20.33,0,0,4.43,5.88,11.74,19.57,7.63,14.28,15.27,24.08,21.33,22.5,12.72-3.33,11.38-27.22,13.34-34.46,2.07-7.64,3.77-10.53,8.77-18.17,17.41-26.61,28.26-32.86,28.26-32.86,0,0,0,0,0,0,34.17-14.68,55.47-40.63,48.74-61.45Z"/>
    <path class="st10" d="M227.71,542.67s-13.44,55.17-14.48,90.78c-.38,13.05-7.31,19.74.39,25.43,6.15,4.55,16.74,7.95,21.91,3.91,5.9-4.61,3.06-12.54,1.96-26.61-3.24-41.36,16.04-83.74,16.04-83.74l-25.83-9.78Z"/>
    <path class="st11" d="M178.79,536.93c17.84,13.92,27.29,70.47,41.48,94.7,4.97,8.48,25.4,11.04,22.17,24.52-1.87,7.84-10.53,8.93-12,9.65-8.46,4.13-18.47,3.27-23.48-.52-5.49-4.16-4.47-8.59-7.83-18-3.9-10.93-10.79-13.05-20.35-23.48-10.87-11.86-15.4-23.77-20.35-36.78-7.29-19.18-13-34.17-6-42.26,7.2-8.33,14.58-17.01,26.35-7.83Z"/>
    <g>
      <path class="st7" d="M151.05,451.58c-19.05,8.2-27.37,33.27-28.44,49.16-1.17,17.35,25.3,76.17,25.3,76.17,0,0,22.76-1.77,27.91-3.13,14.43-3.82,33.91-30,33.91-30l-34.17-66.78-24.52-25.42Z"/>
      <path class="st7" d="M255.39,484.3c-4.37-10.79-18.78-21.39-18.78-21.39,0,0,.12,13.52-3.91,34.96-5.15,27.4-13.83,50.09-13.83,50.09l6.22,7.74c3.62,4.51,12.85,9.38,18.17,11.64l11.35,3.32s14.18-53.29.78-86.35Z"/>
    </g>
    <path class="st11" d="M143.41,666.59c-1.34,4.2-1.43,3.63-10.4,12.78-6.19,6.31-5.31,5.81-8.74,8.35-6.32,4.68-14.56,4.34-31.04,3.65-8.21-.34-9.87-.96-10.7-1.3-7.31-3.03-10.73-9.91-14.61-18-4.6-9.58-6.31-17.54-7.83-24.78-2.56-12.26-3.84-18.4-2.61-25.57.9-5.22,3.1-17.99,14.35-24.26,10.38-5.78,21.15-1.95,22.17-1.57,8.32,3.11,12.49,11.37,16.96,19.57,3.47,6.37,3.07,9,7.3,13.57,1.71,1.85,4.86,1.34,4.86,1.34,11.74,8.22,20.28,36.23,20.28,36.23Z"/>
    <g>
      <path class="st2" d="M81.74,627.64c-5.74,1.04-10.59,15.19-10.57,22.17.02,5.85,2.06,8.57,2.74,9.39.64.78,2.74,3.32,6,3.78,4.25.6,6.39-3.13,8.36-3.13,1.69,0,5.13,2.74,8.47,3.13,3.27.38,5.97-1.25,7.17-4.43.93-2.48.63-6.85-4.08-15.24-3.52-6.27-13.11-16.58-18.09-15.68Z"/>
      <path class="st2" d="M91.89,625.64c2.97-.27,5.02-4.48,4.57-9.39s-3.22-8.68-6.2-8.41c-2.97.27-5.02,4.48-4.57,9.39s3.22,8.68,6.2,8.41Z"/>
      <path class="st2" d="M72.78,627.39c2.97-.27,5.02-4.48,4.57-9.39-.45-4.91-3.22-8.68-6.2-8.41-2.97.27-5.02,4.48-4.57,9.39.45,4.91,3.22,8.68,6.2,8.41Z"/>
      <path class="st2" d="M107.46,630.37c-.38-4.17-2.73-7.36-5.25-7.13-2.52.23-4.26,3.79-3.87,7.96.38,4.17,2.73,7.36,5.25,7.13,2.52-.23,4.26-3.79,3.87-7.96Z"/>
      <path class="st2" d="M64.36,628c-2.52.23-4.26,3.79-3.87,7.96.38,4.17,2.73,7.36,5.25,7.13,2.52-.23,4.26-3.79,3.87-7.96s-2.73-7.36-5.25-7.13Z"/>
    </g>
    <g>
      <path class="st2" d="M378.99,601.87c0-5.52-3.11-6.7-3.11-6.7,0,0-2.18,4.38-1.85,8.22.27,3.14,2.2,5.27,2.2,5.27,0,0,2.76-1.07,2.76-6.8Z"/>
      <path class="st2" d="M385.66,593.8c-.15-3.12-1.34-7.11-2.35-6.85-.6.16-1.55,3.2-1.57,7.45-.01,4.41.77,7.26,1.46,7.45.94.26,2.61-4.86,2.46-8.06Z"/>
      <path class="st2" d="M380.71,608.67s-5.72,14.08-6.32,16.93c-.81,3.88,0,7.43,0,7.43,0,0,3.96-1.24,4.6-6.26.51-4.01,4.12-8.15,3.31-14.97-.2-1.69-1.59-3.14-1.59-3.14Z"/>
    </g>
    <ellipse cx="212.35" cy="361.83" rx="11.25" ry="20.54"/>
    <path class="st0" d="M157.53,308.56c-8.06-5.07-16.99-11.37-26.22-19.17-10.07-8.51-18.35-16.98-25.04-24.65,0,0,2.18,33.74,14.09,57.91,7.71,15.66,23.87,30.52,23.87,30.52.43-7,1.71-16.09,5.09-26.22,2.45-7.34,5.42-13.49,8.22-18.39Z"/>
    <path d="M181.84,368.28c-.17,1.84,2.36,2.51,3.11.83,1.28-2.84,4.6-11.61,6.95-15.51,5.46-9.04,9.3-11.1,11.25-11.93,1.37-.58,6.78-2.9,11.74-.68,3.51,1.57,6.59,6.32,8.02,8.51.55.84,2.27-.08,2.45-1.08v-4.3c-.3-2.84-1.24-4.22-1.42-4.47-1.03-1.41-3.47-4.68-4.35-5.22-6.96-4.21-15.44-.84-17.32-.1-9.1,3.61-13.25,11.58-14.97,14.87-2.49,4.77-5.09,15.02-5.47,19.08Z"/>
    <path d="M290.36,333.31c.17,1.84-2.9,1.43-3.66-.25-1.28-2.84-3.81-5.53-6.43-9.25-3.03-4.3-9.03-4.29-11.93-3.62-1.45.33-5.87,6.16-6.95,9.98s-1.5,9.45-2.93,11.64c-.18.28-.57.2-1.01-.03-1.23-.66-1.88-2.04-1.72-3.43.43-3.68,1.3-9.99,2.43-13.07,4.58-12.44,9.6-11.94,12.62-11.94,7.73,0,12.6,4.61,14.32,7.9,2.49,4.77,4.89,8.03,5.27,12.08Z"/>
    <ellipse cx="269.8" cy="344.64" rx="9.68" ry="20.54"/>
    <path d="M248.18,372.72s1.56-2.27,8.12-4.11c5.43-1.52,8.71-.49,8.71-.49,0,0,0-.06-2.35,5.67-.93,2.28-1.08,4.79-1.08,4.79,0,0,2.73,4.6,4.5,4.99,2.41.54,3.62-5.28,3.62-5.28,0,0,.07,9.43-2.87,9.63-2.19.15-6.92-5.13-6.92-5.13,0,0-8.75,13.5-15.16,13.5-7.14,0-5.97-5.48-5.97-5.48,0,0,1.28,2.65,5.28,2.25,6.85-.68,13.79-14.38,13.79-14.38,0,0-1.48-1.78-3.62-3.23-4.08-2.76-6.07-2.74-6.07-2.74Z"/>
  </g>
  <g id="_Слой_4" data-name="Слой_4">
    <rect class="st6" x="415.79" y="636.47" width="341.22" height="40.32" rx="2.99" ry="2.99"/>
    <rect class="st5" x="439.08" y="608.8" width="296.28" height="27.81" rx="2.99" ry="2.99"/>
    <rect class="st12" x="461.32" y="570.08" width="238.62" height="38.78" rx="2.99" ry="2.99"/>
  </g>
  <g id="_Слой_3" data-name="Слой_3">
    <path class="st8" d="M615.1,548.77s12.93,4.76,24.26,6.26c15.6,2.07,33.29-8.79,41.48-23.48,1.46-2.62,11.14-19.42,5.02-34.6-.66-1.64-8.04-13.58-18.33-14.31-12.08-.85-24.04,17.12-22.3,30.13.87,6.52,1.76,12.39,1.76,12.39,0,0-7.79-4.57-10.76-12.78-3.43-9.48,0-19.57,0-19.57,0,0-7.12,4.08-10.96,9.78-8.7,12.93-11.93,25.43-11.93,25.43,0,0-20.54-30.03-15.2-50.87,5.18-20.22,24.93-29.72,24.93-29.72,0,0-2.15-.51-4.6-.28-4.24.39-8.84,1.04-8.84,1.04,0,0,8.28-10.53,20.35-13.3,19.2-4.42,40.7,7.83,40.7,7.83,0,0-3.21-2.77-2.46-9.12.9-7.56,7.34-11.9,7.34-11.9,0,0-1.1,3.15.14,11.37,1.49,9.9,11.92,13.62,18,20.61,10.77,12.38,13.16,28.42,14.93,39.52,1.54,9.58-1.07,27.26-12.07,47.61-11.67,21.58-34.93,29.09-48.59,31.04-15.26,2.19-43.83-7.04-43.83-7.04l10.96-16.04Z"/>
    <g>
      <path class="st11" d="M607.86,470.38c-5.21-8.66-8.82-14.47-16.17-17.48-13.98-5.72-33.1,2.14-41.22,14.87-2.25,3.54-2.1,5-5.74,31.83-2.72,20.02-3.94,27.58-7.76,33.09-1.52,4.95-3.66,11.04-5.77,14.29-1.74,2.68-4.09,6.84-5.55,11.35-1.04,3.21-.71,4.83.2,7.14.94,2.42,3.23,4.01,5.43,5.04l6.37.04c-.16-1.63-.37-4.37-.16-5.56.29-1.6,1.21-5.11,3.72-9,2.05-3.17,4.69-5.47,6.86-8.68,1.94-2.86,4.58-6.48,4.58-6.48,0,0,1.31-2.64,1.37-3.33.29-3.32-.54.09,1.37-13.21,1.28-8.91,1.92-13.37,2.25-17.71.48-6.29.59-9.88.59-9.88,0,0,1.14,6.64.68,14.48-.33,5.75-1.35,11.76-2.25,17.12-.95,5.61-1.08,8.9-1.08,8.9,0,0,2.31-3.25,3.91-6.55,5.34-11.04,9.39-19.76,11.35-23.77,4.27-8.77,9.78-17.02,9.78-17.02,0,0-4.84,9.99-9.39,20.15-7.02,15.67-10.97,23.45-13.7,27.29-6.46,9.1-12.42,16.43-12.42,16.43-2.54,3.33-5.53,7.62-5.87,11.74-.14,1.73.38,3.81.77,5.09h.07s1.87,1.67,4.89,4.17c4.31,3.57,11.71,5.51,16.7,2.61,2.88-1.68,4.82-3.35,5.93-4.46-.95-3.27-1.24-6-1.37-7.61-.34-4.3-.81-10.18.88-18,1.55-7.17,2.78-12.86,7.73-16.24.9-.62,3.83-2.61,7.53-2.25,5.59.55,9.19,6.11,9.88,7.24,1.97,3.23,3.23,6.07,3.23,6.07.8,1.8,1.76,4.7,1.76,4.7,0,0,.9.17,3.42.98,3.36,1.08,7.83,3.42,7.83,3.42l-10.76-2.25s.32,1.39,1.47,3.42c1.46,2.58,1.57,5.87,1.57,5.87,0,0-2.11-3.19-4.79-9.88-1.97-4.9-2.04-5.68-3.42-8.41-2.06-4.07-3.17-6.19-5.67-7.73-.71-.43-3.94-2.3-7.63-1.47-4.43.99-6.91,5.1-8.32,8.32-2.45,5.58-2.93,14.28-3.42,19.17-.3,3.04.08,5.78,1.37,12.82.07.36.13.72.2,1.07.66,1.09,2.44,3.79,5.64,7.05,6.82,6.94,20.97,2.57,21.65,2.35,2.17-.7,8.87-3.15,15.39-11.48,10.26-13.09,10.59-28.58,10.7-42.26.25-31.58-11.46-52.16-14.61-57.39Z"/>
      <path class="st11" d="M525.55,567.91c-.79-1.36-2.48-2.59-2.3-6.54.13-2.98,1.71-6.63,5.04-12.44,3.67-6.4,5.35-10.3,5.92-12.05.15-.48.3-.95.43-1.41-1.82,1.55-12.16,5.86-21.03,5.86-6.66,0-7.18,1.52-14.35-3.26-8.5-5.67-7.17-12.65-15.59-11.35-6.19.96-7.89,11.61-8.28,16.7-.95,12.35,2.19,22.51,12.72,26.09,1.79.61,5.74.78,5.74.78l34.5.19c-1.23-.85-2.34-1.77-2.8-2.58Z"/>
      <path class="st3" d="M567.52,558.23c.49-4.89.98-13.6,3.42-19.17,1.41-3.21,3.89-7.32,8.32-8.32,3.69-.83,6.92,1.03,7.63,1.47,2.5,1.53,3.61,3.66,5.67,7.73,1.38,2.73,1.46,3.51,3.42,8.41,2.68,6.69,4.79,9.88,4.79,9.88,0,0-.11-3.29-1.57-5.87-1.15-2.03-1.47-3.42-1.47-3.42l10.76,2.25s-4.47-2.34-7.83-3.42c-2.52-.81-3.42-.98-3.42-.98,0,0-.96-2.89-1.76-4.7,0,0-1.26-2.83-3.23-6.07-.69-1.13-4.29-6.69-9.88-7.24-3.71-.36-6.63,1.63-7.53,2.25-4.94,3.38-6.18,9.07-7.73,16.24-1.69,7.82-1.22,13.7-.88,18,.13,1.61.42,4.34,1.37,7.61.79-.78,1.18-1.28,1.18-1.28,0,0,.1.19.3.51-.07-.35-.13-.71-.2-1.07-1.29-7.03-1.67-9.78-1.37-12.82Z"/>
      <path class="st3" d="M525.85,565.47c-.9-2.31-1.23-3.93-.2-7.14,1.46-4.51,3.81-8.67,5.55-11.35,2.11-3.25,4.25-9.34,5.77-14.29-.64.92-1.35,1.79-2.15,2.65-.04.04-.11.1-.17.14-.14.46-.28.93-.43,1.41-.57,1.75-2.25,5.65-5.92,12.05-3.33,5.81-4.9,9.46-5.04,12.44-.18,3.95,1.51,5.18,2.3,6.54.47.81,1.57,1.72,2.8,2.58l2.92.02c-2.2-1.02-4.49-2.62-5.43-5.04Z"/>
      <path class="st3" d="M539.25,565.47c.34-4.12,3.33-8.41,5.87-11.74,0,0,5.97-7.34,12.42-16.43,2.73-3.85,6.67-11.63,13.7-27.29,4.55-10.16,9.39-20.15,9.39-20.15,0,0-5.51,8.25-9.78,17.02-1.95,4.01-6,12.73-11.35,23.77-1.6,3.3-3.91,6.55-3.91,6.55,0,0,.13-3.29,1.08-8.9.9-5.36,1.92-11.36,2.25-17.12.46-7.84-.68-14.48-.68-14.48,0,0-.11,3.59-.59,9.88-.33,4.34-.97,8.8-2.25,17.71-1.91,13.3-1.08,9.89-1.37,13.21-.06.68-1.37,3.33-1.37,3.33,0,0-2.64,3.62-4.58,6.48-2.18,3.21-4.82,5.51-6.86,8.68-2.51,3.89-3.43,7.4-3.72,9-.21,1.19,0,3.93.16,5.56h2.38c-.39-1.26-.92-3.34-.77-5.07Z"/>
    </g>
    <path class="st8" d="M540.82,384.23s13.81-23.53,43.04-47.74c24.01-19.88,38.59-31.7,45.2-27.98,3.13,1.76-2.57,19.15-8.61,58.5-5.53,36.03-12.33,56.35-12.33,56.35l-67.3-39.13Z"/>
    <path class="st2" d="M616.99,330.23c-2.12-.53-29.35,31.5-38.54,48.91-7.18,13.59,21.25,39.08,24.07,29.93,18-58.5,17.2-78.17,14.48-78.85Z"/>
    <path class="st8" d="M608.06,418.56c-.91-19.27-12.39-35.93-28.69-44.33h0s0,0-.01,0c-.3-.15-.6-.31-.91-.46-2.29-1.65-8.79-9.26-18.78-44.32-9.98-35.05-10.82-41.15-15.73-41.67-7.34-.78-28.39,35.63-35.8,64.96-6.61,26.15-5.41,68.4-5.41,68.4v.06c0,3.71-1.44,7.25-3.93,9.99-3.81,4.19-5.98,8.98-5.98,14.08,0,16.42,22.48,29.74,50.22,29.74,4.95,0,9.72-.43,14.24-1.22,29.09-1.01,52.19-25.57,50.78-55.22Z"/>
    <circle cx="565.29" cy="430.81" r="10.12"/>
    <circle cx="509.58" cy="428.66" r="10.12"/>
    <circle class="st7" cx="525.01" cy="456.75" r="19.11"/>
    <path class="st4" d="M531.88,461.12c.27,8.35-3.88,13.22-9.39,15.65-3.59,1.58-10.25,2.82-14.35-1.17-4.58-4.46-3.12-12.7.52-17.48,3.33-4.38,8.74-7.83,14.48-6.17,3.61,1.04,8.61,5.31,8.74,9.17Z"/>
  </g>
</svg>