<?xml version="1.0" encoding="UTF-8"?>
<svg xmlns="http://www.w3.org/2000/svg" version="1.1" xmlns:xlink="http://www.w3.org/1999/xlink" viewBox="0 0 800 800">
  <!-- Generator: Adobe Illustrator 29.3.0, SVG Export Plug-In . SVG Version: 2.1.0 Build 146)  -->
  <defs>
    <style>
      .st0 {
        fill: url(#_Безымянный_градиент_131);
      }

      .st1 {
        fill: #666157;
      }

      .st2 {
        fill: #727272;
      }

      .st3 {
        fill: #e9a3a3;
      }

      .st4 {
        fill: #7f6553;
      }

      .st5 {
        fill: #3e4a56;
      }

      .st6 {
        fill: url(#_Безымянный_градиент_23);
      }

      .st7 {
        fill: #8e4c47;
      }

      .st8 {
        fill: #b2adaf;
      }

      .st9 {
        fill: #b59b61;
      }

      .st10 {
        fill: #ddd;
      }

      .st11 {
        fill: #d0b9bf;
      }

      .st12 {
        fill: #e4e1ea;
      }

      .st13 {
        fill: #c1a368;
      }

      .st14 {
        fill: #86a3b1;
      }

      .st15 {
        fill: url(#_Безымянный_градиент_13);
      }

      .st16 {
        fill: #535d69;
      }

      .st17 {
        fill: #5e5a50;
      }
    </style>
    <linearGradient id="_Безымянный_градиент_13" data-name="Безымянный градиент 13" x1="129.6" y1="507.96" x2="207.63" y2="553.01" gradientUnits="userSpaceOnUse">
      <stop offset=".7" stop-color="#d0b9bf"/>
      <stop offset="1" stop-color="#c1aace"/>
    </linearGradient>
    <linearGradient id="_Безымянный_градиент_131" data-name="Безымянный градиент 13" x1="189.93" y1="507.96" x2="267.97" y2="553.01" gradientTransform="translate(649.08) rotate(-180) scale(1 -1)" xlink:href="#_Безымянный_градиент_13"/>
    <linearGradient id="_Безымянный_градиент_23" data-name="Безымянный градиент 23" x1="128.2" y1="666.31" x2="165.02" y2="666.31" gradientUnits="userSpaceOnUse">
      <stop offset=".34" stop-color="#ddd"/>
      <stop offset=".69" stop-color="#c1aace"/>
    </linearGradient>
  </defs>
  <g id="_Слой_3" data-name="Слой_3">
    <rect class="st2" x="9.28" y="294.14" width="781.43" height="205.83" rx="29.54" ry="29.54"/>
    <path class="st15" d="M113.36,570.68c10.2,4.12,20.2,9.67,26.14,15.88,8.41,8.8,9.47,14.25,9.47,14.25,0,0,11.06-7.16,26.22-26.02,12.06-15.01,18.1-22.52,25.83-29.93,15.24-14.63,20.88-14.56,25.24-24.46,6.7-15.21-.03-30.33-.39-31.11-10.26-22.13-38.23-23.06-39.72-23.09-6.25-.11-15.55,2.61-15.55,2.61,0,0-22.33,18.28-27.68,26.54-28.96,44.69-47.15,71.22-47.15,71.22,0,0,6.72-.28,17.61,4.11Z"/>
    <path class="st0" d="M475.39,570.68c-10.2,4.12-20.2,9.67-26.14,15.88-8.41,8.8-9.47,14.25-9.47,14.25,0,0-11.06-7.16-26.22-26.02-12.06-15.01-18.1-22.52-25.83-29.93-15.24-14.63-20.88-14.56-25.24-24.46-6.7-15.21.03-30.33.39-31.11,10.26-22.13,38.23-23.06,39.72-23.09,6.25-.11,15.55,2.61,15.55,2.61,0,0,22.33,18.28,27.68,26.54,28.96,44.69,47.15,71.22,47.15,71.22,0,0-6.72-.28-17.61,4.11Z"/>
    <path class="st11" d="M399.44,448.66c-9.06-6.48-17.75-9.9-24.65-12.13-4.98-1.61-17.82-5.44-44.61-7.04-12.29-.74-27.27-.66-35.8-.53-8.53-.13-23.51-.21-35.8.53-26.78,1.61-39.63,5.44-44.61,7.04-6.91,2.23-15.59,5.65-24.65,12.13-6.61,4.73-18.72,20.15-18.72,20.15,0,0,7.88,6.22,12.07,10.37,0,0,3.97,2.31,20.12,32.8,7.01,13.24-.35,24.01,7.24,63,8.69,44.61,16.47,75.98,16.47,75.98l58.7.3v.09s9.19-.05,9.19-.05l9.2.05v-.09s58.7-.3,58.7-.3c0,0,7.78-31.37,16.47-75.98,7.59-38.99.23-49.76,7.24-63,16.15-30.49,20.12-32.8,20.12-32.8,4.18-4.15,12.07-10.37,12.07-10.37,0,0-12.11-15.43-18.72-20.15Z"/>
    <g>
      <path class="st16" d="M266.22,264.39c-15.3-34.41-23.33-51.93-25.57-59.22-2.32-7.57-4.96-17.74-8.09-23.22-3-5.26-8.61-4.17-13.3,3.91-4.69,8.07-12.73,21.32-21.13,47.22-9.39,28.96-13.78,40.31-16.7,69.39-2.13,21.2-.51,37.05,1.57,57.39,2.77,27.19,9.65,44.09,9.65,44.09,0,0,101.51-45.77,95.74-93.91-1.24-10.38-4.79-6.56-22.17-45.65Z"/>
      <path class="st16" d="M404.04,302.48c-2.92-29.08-7.3-40.43-16.7-69.39-8.4-25.9-16.44-39.15-21.13-47.22-4.7-8.09-10.3-9.17-13.3-3.91-3.13,5.48-5.77,15.65-8.09,23.22-2.24,7.29-10.26,24.81-25.57,59.22-17.39,39.09-20.93,35.27-22.17,45.65-5.77,48.14,95.74,93.91,95.74,93.91,0,0,6.88-16.9,9.65-44.09,2.08-20.35,3.69-36.19,1.57-57.39Z"/>
    </g>
    <path class="st3" d="M214.3,296.35c-.09-18.31.9-32.9,1.74-45.82.89-13.58,1.57-24.45,1.96-30.78-1.52,2.35-3.31,5.24-5.22,8.61,0,0-2,3.53-3.78,7.08-2.38,4.72-5.19,11.08-8.46,20.17-3.22,8.96-6.13,17.39-8.67,29.1-1.15,5.31-2.04,11.05-2.78,18.48-1.46,14.54-.35,25.41,1.07,39.36,1.9,18.65,6.62,30.23,6.62,30.23,14.28-6.2,25.08-40.17,25.08-40.17,0,0-7.44-11.39-7.57-36.26Z"/>
    <path class="st3" d="M374.11,296.35c.09-18.31-.9-32.9-1.74-45.82-.89-13.58-1.57-24.45-1.96-30.78,1.52,2.35,3.31,5.24,5.22,8.61,0,0,2,3.53,3.78,7.08,2.38,4.72,5.19,11.08,8.46,20.17,3.22,8.96,6.13,17.39,8.67,29.1,1.15,5.31,2.04,11.05,2.78,18.48,1.46,14.54.35,25.41-1.07,39.36-1.9,18.65-6.62,30.23-6.62,30.23-14.28-6.2-25.08-40.17-25.08-40.17,0,0,7.44-11.39,7.57-36.26Z"/>
    <path class="st16" d="M395.87,427.7c-6.86-9.25.05-19.02,1.57-39.91.59-8.15,1.85-28.61-7.83-48.52-7.7-15.83-19.17-24.85-27.39-31.3-18.18-14.29-35.99-19.24-42.78-20.87-8.6-2.06-19.09-2.64-24.52-2.8v-.07s-.67,0-1.83.02c-1.16-.02-1.83-.02-1.83-.02v.07c-5.43.16-15.93.75-24.52,2.8-6.79,1.63-24.6,6.58-42.78,20.87-8.22,6.46-19.69,15.47-27.39,31.3-9.68,19.91-8.42,40.37-7.83,48.52,1.52,20.89,8.43,30.66,1.57,39.91-3.36,4.53-8.11,6.39-12.01,12.57,1.41-.11,2.89-.21,4.45-.3,5.84-.37,16.3-.15,16.96,2.87.38,1.74-2.86,2.69-7.04,7.3-1.54,1.7-2.54,3.17-3.3,4.53,3.87-.82,8.32-1.3,13.22-.36,7.05,1.35,5.95,3.88,16.96,9.13,18.22,8.69,26.11,4.07,39.13,13.57,5.12,3.74,4.49,4.88,9.65,8.09,9.13,5.67,21.83,6.62,24.52,6.76v.02s.1,0,.26-.01c.16,0,.26.01.26.01v-.02c2.69-.14,15.4-1.09,24.52-6.76,5.16-3.2,4.53-4.35,9.65-8.09,13.02-9.49,20.91-4.88,39.13-13.57,11.01-5.25,9.91-7.78,16.96-9.13,4.89-.94,9.34-.46,13.22.36-.76-1.37-1.76-2.83-3.3-4.53-4.18-4.62-7.42-5.57-7.04-7.3.66-3.01,11.12-3.24,16.96-2.87,1.56.1,3.04.19,4.45.3-3.9-6.17-8.66-8.04-12.01-12.57Z"/>
    <path class="st5" d="M526,615.42s11.22,2.29,20.72,2.18c-4.85-3.29-16.88-15.01-21.31-20.74-10.15-13.16-15.41-16.42-33.13-53.9-33.81-71.55-32.4-66.84-36.47-77.5-2.77-7.26-12.8-33.97-24.31-66.04-2.15-5.98-7.59-21.18-18.79-38.75-12.95-20.33-22.19-25.92-30.39-27.84-2.43-.57-11.83-2.76-17.13,2.18-1.68,1.57-3.2,4.08-3.32,18.56-.12,14.97,1.75,20.54,5.25,24.83,4.52,5.55,8.64,10.04,17.68,15.56,8.76,5.34,10.49,8.61,14.37,14.74,11.61,18.33,14.58,44,17.41,64.41,7.9,57.08,9.79,45.17,17.13,89.24,2.86,17.16,5.35,37.42,13.26,48.3,10.12,13.91,26.45,16.51,44.76,16.51,15.72,0,34.96-1.03,48.05-2.46-5.57-5.82-13.79-9.28-13.79-9.28Z"/>
    <path class="st16" d="M519.99,604.08s10.59,2.19,19.57,2.09c-4.58-3.14-15.94-14.35-20.12-19.83-9.58-12.58-14.55-15.69-31.28-51.52-31.92-68.39-30.59-63.89-34.43-74.09-2.62-6.94-12.08-32.47-22.96-63.13-2.03-5.71-7.17-20.24-17.74-37.04-12.23-19.43-20.95-24.78-28.7-26.61-2.29-.54-11.17-2.64-16.17,2.09-1.59,1.5-3.02,3.9-3.13,17.74-.11,14.31,1.66,19.64,4.96,23.74,4.26,5.3,8.16,9.6,16.7,14.87,8.27,5.11,9.9,8.23,13.57,14.09,10.96,17.52,13.77,42.06,16.43,61.57,7.46,54.56,9.25,43.17,16.17,85.3,2.7,16.4,5.05,35.77,12.52,46.17,9.55,13.3,24.97,15.78,42.26,15.78,14.84,0,33.01-.98,45.36-2.35-5.26-5.57-13.02-8.87-13.02-8.87Z"/>
    <path class="st5" d="M63.74,604.08s-10.06,2.19-19.57,2.09c4.85-3.29,9.72-3.56,14.14-9.3,10.15-13.16,15.41-16.42,33.13-53.9,33.81-71.55,32.4-66.84,36.47-77.5,2.77-7.26,12.8-33.97,24.31-66.04,2.15-5.98,7.59-21.18,18.79-38.75,12.95-20.33,22.19-25.92,30.39-27.84,2.43-.57,11.83-2.76,17.13,2.18,1.68,1.57,3.2,4.08,3.32,18.56.12,14.97-1.75,20.54-5.25,24.83-4.52,5.55-8.64,10.04-17.68,15.56-8.76,5.34-10.49,8.61-14.37,14.74-11.61,18.33-14.58,44-17.41,64.41-7.9,57.08-9.79,45.17-17.13,89.24-2.86,17.16-5.12,28.06-13.04,38.95-10.12,13.91-26.96,13.98-45.27,13.98-15.72,0-27.9-.89-40.99-2.32,5.57-5.82,13.02-8.87,13.02-8.87Z"/>
    <path class="st16" d="M65.33,603.48s-10.59,2.19-19.57,2.09c4.58-3.14,15.94-14.35,20.12-19.83,9.58-12.58,14.55-15.69,31.28-51.52,31.92-68.39,30.59-63.89,34.43-74.09,2.62-6.94,12.08-32.47,22.96-63.13,2.03-5.71,7.17-20.24,17.74-37.04,12.23-19.43,20.95-24.78,28.7-26.61,2.29-.54,11.17-2.64,16.17,2.09,1.59,1.5,3.02,3.9,3.13,17.74.11,14.31-1.66,19.64-4.96,23.74-4.26,5.3-8.16,9.6-16.7,14.87-8.27,5.11-9.9,8.23-13.57,14.09-10.96,17.52-13.77,42.06-16.43,61.57-7.46,54.56-9.25,43.17-16.17,85.3-2.7,16.4-5.05,35.77-12.52,46.17-9.55,13.3-24.97,15.78-42.26,15.78-14.84,0-33.01-.98-45.36-2.35,5.26-5.57,13.02-8.87,13.02-8.87Z"/>
    <circle cx="254.21" cy="441.02" r="10.66"/>
    <path d="M218.76,411.18c-.18.3,8.94,10.68,24.78,14.28,6.44,1.46,16.31,1.77,19.83-2.8,3.05-3.96.6-11.22,0-11.22-.41,0,.22,3.46-1.83,6.26-.59.81-2.84,3.53-9.65,3.91-15.05.84-32.9-10.82-33.13-10.43Z"/>
    <circle cx="332.6" cy="439.94" r="10.66"/>
    <path d="M368.05,410.11c.18.3-8.94,10.68-24.78,14.28-6.44,1.46-16.31,1.77-19.83-2.8-3.05-3.96-.6-11.22,0-11.22.41,0-.22,3.46,1.83,6.26.59.81,2.84,3.53,9.65,3.91,15.05.84,32.9-10.82,33.13-10.43Z"/>
    <path d="M283.83,483.05s2.23,1.98,10.07,2.09c8.25.11,10.54-2.09,10.54-2.09l-11.09,8.8-9.52-8.8Z"/>
  </g>
  <g id="_Слой_4" data-name="Слой_4">
    <path class="st8" d="M299.04,636.99l124.51-45.32s-12.32-8.12-19.3-9.65c-16.16-3.54-27.12,1.11-52.17,9.13-32.52,10.41-50.19,19.5-57.39,23.67-7.2-4.17-24.87-13.26-57.39-23.67-25.05-8.02-36.02-12.67-52.17-9.13-6.99,1.53-19.3,9.65-19.3,9.65l124.51,45.32-.07,3.2,4.43-1.61,4.43,1.61-.07-3.2Z"/>
    <polygon class="st7" points="294.33 672.36 294.33 622.91 434.67 584.86 394.5 643.27 294.33 672.36"/>
    <polygon class="st7" points="294.33 672.36 294.33 622.91 153.98 584.86 194.15 643.27 294.33 672.36"/>
    <polygon class="st17" points="585.26 666.99 375 666.99 429.26 737.09 639.52 737.09 585.26 666.99"/>
    <polyline class="st17" points="639.52 706.83 585.26 636.73 375 636.73 429.26 706.83"/>
    <rect class="st1" x="429.26" y="706.83" width="210.26" height="30.26"/>
    <polygon class="st8" points="429.26 734.04 377.54 666.99 377.54 639.78 429.26 706.83 429.26 734.04"/>
    <polygon class="st9" points="549.32 635.61 381.98 635.61 425.16 691.02 592.5 691.02 549.32 635.61"/>
    <polyline class="st9" points="592.5 667.1 549.32 611.69 381.98 611.69 425.16 667.1"/>
    <rect class="st13" x="425.16" y="667.1" width="167.34" height="23.92"/>
    <polygon class="st8" points="425.16 688.61 384 635.61 384 614.11 425.16 667.1 425.16 688.61"/>
    <path class="st6" d="M154.2,633.24s-12.53,3.71-16.17,7.04c-2.34,2.14-7.51,7-9.26,15.13-1.66,7.7.71,13.86,2.61,18.78,2.31,5.99,5.28,9.73,9.26,14.74,4.64,5.83,11.48,10.43,11.48,10.43l12.91-.78s-5.7-4.47-15.13-13.7c-3.54-3.46-6.21-6.11-8.74-10.43-2.49-4.26-6.03-10.31-4.3-17.09,1.29-5.04,4.89-8.16,6.13-9.13,7.85-6.18,18.39-6.26,18.39-6.26l-7.17-8.74Z"/>
    <path class="st10" d="M186.94,616.71c-22.62,0-40.96,5.33-40.96,11.9,0,.02,0,.05,0,.07v78.07s0,.05,0,.07,0,.05,0,.07v.09s0,0,0,0c.31,6.5,18.51,11.74,40.94,11.74s40.64-5.24,40.94-11.74c0,0,.01,0,.01,0v-78.38c0-6.57-18.34-11.9-40.96-11.9Z"/>
    <ellipse class="st4" cx="186.94" cy="630.83" rx="34.17" ry="8.41"/>
  </g>
  <g id="_Слой_5" data-name="Слой_5">
    <path class="st12" d="M543.29,507.11s-22.95-6.29-25.04-8.35c-10.96-10.76-10.25-26.05-9.91-30,1.32-15.65,11.41-26.2,16.43-31.3,29.9-30.39,96.27-43.39,155.22-23.74,26.61,8.87,44.09,31.04,44.09,31.04l-12.52-3.65s12.52,15.65-6.26,33.04c-26.34,24.39-48.52,17.83-48.52,17.83l2.35-5.22-13.83-8.35s19.49-4.53,24.78-15.65c4.42-9.29-1.31-23.27-2.61-24.78-9.91-11.48-35.42-17.71-46.7-18.26-31.83-1.57-69.02,8.95-85.04,36.26-1.91,3.26-9.05,15.43-4.43,22.96,4.94,8.06,22.17,11.48,22.17,11.48l-10.17,16.7Z"/>
    <path class="st14" d="M626.89,377.33s-6.25,13.14-12.78,34.43c-2.63,8.58-7.97,25.99-3.39,42.78,6.94,25.47,31.04,32.35,29.48,42-2.51,15.5-16.11,26.89-60.52,26.87-12.78,0-44.75-5.93-52.17-17.48-4.7-7.3-7.96-14.11,9.13-67.04,14.99-46.42,40.96-76.43,40.96-76.43l49.3,14.87Z"/>
    <path class="st12" d="M597.09,320.07s-7.22-5.69-20.15-13.5c-7.13-4.31-29.93-15.07-35.61-10.96-3.26,2.36-2.48,20.54,3.13,41.87,7.71,29.29,18.46,48.03,24.26,53.02,11.15,9.59,36.66,10.56,42.65,9.49,17.02-3.04,40.62-18.02,39.33-26.32-.5-3.21-3.56-3.34-7.04-8.22-1.96-2.74-1.33-15.49-2.54-25.24-.91-7.36-3.56-17.21-10.76-36.78-7.11-19.34-10.74-29.49-14.28-28.76-5.67,1.17-18.98,45.39-18.98,45.39Z"/>
    <circle cx="594.74" cy="380.07" r="7.04"/>
    <circle cx="628.33" cy="374.33" r="7.04"/>
    <polygon class="st13" points="601.79 471.83 563.71 458.14 558.42 418.42 605.58 437.4 642.36 420.77 629.25 456.57 601.79 471.83"/>
    <circle class="st12" cx="568.14" cy="455.2" r="10.76"/>
    <circle class="st12" cx="626.88" cy="452.76" r="10.76"/>
  </g>
</svg>